<svg width="28" height="28" viewBox="0 0 28 28" fill="none" xmlns="http://www.w3.org/2000/svg">
<path fill-rule="evenodd" clip-rule="evenodd" d="M6.71364 1.14282C6.24025 1.14282 5.8565 1.52658 5.8565 1.99997C5.8565 2.47335 6.24025 2.85711 6.71364 2.85711H20.4279C20.9013 2.85711 21.2851 2.47335 21.2851 1.99997C21.2851 1.52658 20.9013 1.14282 20.4279 1.14282H6.71364ZM22.1429 8.00062V26.0006H16.1429V20.9857H11V26.0006H5.00003V8.00062H4.14264C3.4327 8.00062 2.85718 7.4251 2.85718 6.71516C2.85718 6.00528 3.43259 5.42979 4.14247 5.42969L14 5.42854L23.0882 5.42972C23.798 5.4298 24.3735 6.00529 24.3735 6.71517C24.3735 7.42511 23.798 8.00062 23.088 8.00062H22.1429ZM18.2857 20.9857V23.2571H20.4286V20.9857H18.2857ZM20.4286 19.0571V16.7857H18.2857V19.0571H20.4286ZM20.4286 12.7571V14.8571H18.2857V12.7571H20.4286ZM20.4286 8.68568V10.8285H18.2857V8.68568H20.4286ZM14.5572 8.68568H16.3572V10.8285H14.5572V8.68568ZM10.7857 8.68568H12.6286V10.8285H10.7857V8.68568ZM6.71432 8.68568H8.85718V10.8285H6.71432V8.68568ZM6.71432 14.8571V12.7571H8.85718V14.8571H6.71432ZM8.85718 16.7857H6.71432V19.0571H8.85718V16.7857ZM10.7857 16.7857V19.0571H12.6286V16.7857H10.7857ZM14.5572 16.7857V19.0571H16.3572V16.7857H14.5572ZM6.71432 20.9857H8.85718V23.2571H6.71432V20.9857ZM10.7857 14.8571H12.6286V12.7571H10.7857V14.8571ZM14.5572 14.8571H16.3572V12.7571H14.5572V14.8571Z" fill="white"/>
</svg>
