<svg width="30" height="30" viewBox="0 0 30 30" fill="none" xmlns="http://www.w3.org/2000/svg">
<g clip-path="url(#clip0)">
<path d="M21.1431 10.5161C18.5035 10.517 12.3446 10.5164 9.88107 10.5165C9.88107 16.6131 12.7478 15.5797 12.7478 18.1626C12.7478 19.713 8.99164 19.5883 5.27389 23.3292C4.76003 23.8462 3.1384 25.6637 5.27389 27.4624C8.34343 30.0461 22.6769 30.0461 25.7502 27.4624C27.9019 25.6536 26.264 23.8462 25.7502 23.3292C22.157 19.713 18.2764 19.5192 18.2764 18.1626C18.2764 15.4344 21.1431 16.6131 21.1431 10.5161Z" fill="white"/>
<path d="M23.3969 9.48658H7.63013C7.62861 7.31662 8.85871 7.31662 8.85871 7.31662C9.37062 7.31662 8.85791 6.28331 9.37062 5.25C10.2211 3.42405 11.4174 2.15007 13.6699 2.15007C13.8294 2.72532 13.6571 5.04372 14.0794 5.04372C14.2649 5.04372 14.4897 3.70003 14.4897 0.600098C15.5127 0.600097 15.5127 0.600968 16.5373 0.600098C16.5365 3.70003 16.6965 5.04372 16.9461 5.04372C17.1956 5.04372 17.1992 2.71384 17.3556 2.15007C19.608 2.15007 20.8059 3.42405 21.6564 5.25C22.1683 6.28331 21.6556 7.31662 22.1683 7.31662C22.3595 7.31677 23.3969 7.38121 23.3969 9.48658Z" fill="white"/>
</g>
<defs>
<clipPath id="clip0">
<rect width="28.8" height="28.8" fill="white" transform="translate(0.600098 0.600098)"/>
</clipPath>
</defs>
</svg>
